<svg width="50" height="56" viewBox="0 0 50 56" fill="none" xmlns="http://www.w3.org/2000/svg">
<path fill-rule="evenodd" clip-rule="evenodd" d="M13.8908 6.36527C10.1904 8.36508 5.43655 14.8819 5.43655 33.3574V36.0846H0V33.3574C0 14.4372 4.81094 5.07704 11.3126 1.56333C14.5405 -0.181191 17.871 -0.279555 20.5652 0.365637C23.1033 0.973444 25.5411 2.36835 26.6964 4.2079C28.5013 7.08193 29.3048 9.91982 29.2808 12.7544C29.2572 15.5488 28.4312 18.1471 27.2848 20.5668C26.1469 22.9687 24.6248 25.3307 23.1062 27.6258C22.893 27.9481 22.6795 28.2694 22.4664 28.5903C22.0146 29.2705 21.5641 29.9488 21.1192 30.6303H25.678C27.3141 26.9618 29.0434 24.0961 30.8169 21.9334C34.0705 17.9657 37.8124 16.0096 41.5304 16.5699C45.1929 17.1218 47.7568 19.9611 49.0085 23.175C50.2783 26.4352 50.3987 30.4721 48.9592 34.3165L48.2971 36.0846H29.3157C28.5313 38.1542 27.7584 40.4918 27.0107 43.1237C26.1848 46.0302 26.6566 47.8164 27.3324 48.8088C28.0141 49.8097 29.2232 50.4801 30.853 50.5411C34.0969 50.6626 38.7661 48.2058 40.5659 41.6517L41.2879 39.0225L46.5292 40.4712L45.8072 43.1004C43.4277 51.7656 36.7384 56.2196 30.6503 55.9917C27.6142 55.878 24.6639 54.5587 22.8436 51.8858C21.0175 49.2044 20.6447 45.6327 21.7824 41.6285C22.345 39.6481 22.928 37.8021 23.5285 36.0846H11.5583L13.8814 32.0047C15.1853 29.7148 16.6243 27.5491 17.9553 25.546C18.1655 25.2296 18.373 24.9173 18.5768 24.6092C20.1036 22.3018 21.4229 20.2342 22.3747 18.2253C23.318 16.2342 23.8298 14.4407 23.8445 12.7082C23.8587 11.016 23.4008 9.1921 22.0967 7.11542C22.0967 7.11546 22.0966 7.11541 22.0966 7.11527C22.0939 7.11142 22.0435 7.03757 21.906 6.91228C21.7685 6.78705 21.5735 6.63752 21.3172 6.48062C20.8019 6.16506 20.1118 5.86459 19.303 5.67091C17.6936 5.28552 15.7638 5.35303 13.8908 6.36527ZM31.7012 30.6303H44.3683C44.7539 28.6326 44.545 26.7012 43.9448 25.1601C43.1504 23.1204 41.8641 22.1357 40.7228 21.9637C39.6372 21.8001 37.6218 22.22 35.0152 25.3986C33.9409 26.7087 32.8234 28.4279 31.7012 30.6303Z" fill="white"/>
</svg>
